# xmcd
# 
# Track frame offsets:
#     150
#     30110
#     53562
#     83860
#     111902
#     140105
# 
# Disc length: 2140
# 
# Revision: 0
# Processed by: cddbd v1.5.2PL0 Copyright (c) Steve Scherf et al.
# Submitted via: BonkEnc v1.0.5
# 
DISCID=45085a06
DTITLE=andre condouant - brother meeting
DYEAR=0
DGENRE=Jazz
TTITLE0=brother meeting
TTITLE1=blues for wes
TTITLE2=short b.n
TTITLE3=poema
TTITLE4=ballad for annnie
TTITLE5=astracan
EXTD=
EXTT0=
EXTT1=
EXTT2=
EXTT3=
EXTT4=
EXTT5=
PLAYORDER=
